<?xml version="1.0" standalone="no"?>
<!DOCTYPE svg PUBLIC "-//W3C//DTD SVG 20010904//EN"
 "http://www.w3.org/TR/2001/REC-SVG-20010904/DTD/svg10.dtd">
<svg version="1.0" xmlns="http://www.w3.org/2000/svg"
 width="260.000000pt" height="260.000000pt" viewBox="0 0 260.000000 260.000000"
 preserveAspectRatio="xMidYMid meet">
<metadata>
Created by potrace 1.14, written by Peter Selinger 2001-2017
</metadata>
<g transform="translate(0.000000,260.000000) scale(0.100000,-0.100000)"
fill="#000000" stroke="none">
<path d="M1170 2503 c-191 -29 -294 -59 -421 -124 -328 -165 -575 -488 -643
-839 -114 -586 197 -1153 753 -1375 143 -56 366 -92 506 -80 315 26 569 140
781 350 135 134 220 260 282 420 251 649 -83 1365 -743 1590 -151 51 -387 78
-515 58z m233 -949 c65 -22 139 -91 167 -155 41 -96 17 -221 -58 -303 -96
-103 -288 -102 -392 3 -149 151 -83 390 130 464 31 11 108 6 153 -9z m-378
-440 c31 -58 111 -121 184 -145 77 -26 169 -22 244 10 56 24 140 99 157 141
l12 30 409 0 409 0 -5 -22 c-67 -305 -149 -465 -334 -648 -317 -315 -811 -415
-1227 -249 -256 101 -484 310 -609 558 -36 72 -91 243 -100 309 l-7 52 424 0
423 0 20 -36z"/>
</g>
</svg>
